<svg id="instagram-icon" xmlns="http://www.w3.org/2000/svg" x="0px" y="0px" viewBox="0 0 24 24" class="instagram _14c7ccv0"><g><circle cx="12" cy="12" r="2.73"></circle><path d="M18.38,7.17c-0.15-0.38-0.33-0.66-0.61-0.94s-0.56-0.46-0.94-0.61c-0.29-0.11-0.72-0.25-1.52-0.28 C14.45,5.29,14.19,5.29,12,5.29S9.55,5.29,8.69,5.33C7.89,5.37,7.46,5.5,7.17,5.62C6.79,5.76,6.51,5.94,6.23,6.23 S5.76,6.79,5.62,7.17C5.5,7.46,5.37,7.89,5.33,8.69C5.29,9.55,5.29,9.81,5.29,12s0.01,2.45,0.05,3.31c0.04,0.8,0.17,1.23,0.28,1.52 c0.15,0.38,0.33,0.66,0.61,0.94s0.56,0.46,0.94,0.61c0.29,0.11,0.72,0.25,1.52,0.28c0.86,0.04,1.12,0.05,3.31,0.05 s2.45-0.01,3.31-0.05c0.8-0.04,1.23-0.17,1.52-0.28c0.38-0.15,0.66-0.33,0.94-0.61s0.46-0.56,0.61-0.94 c0.11-0.29,0.25-0.72,0.28-1.52c0.04-0.86,0.05-1.12,0.05-3.31s-0.01-2.45-0.05-3.31C18.63,7.89,18.5,7.46,18.38,7.17z M12,16.21 c-2.32,0-4.21-1.88-4.21-4.21S9.68,7.79,12,7.79s4.21,1.88,4.21,4.21S14.32,16.21,12,16.21z M16.37,8.61 c-0.54,0-0.98-0.44-0.98-0.98c0-0.54,0.44-0.98,0.98-0.98c0.54,0,0.98,0.44,0.98,0.98C17.35,8.17,16.91,8.61,16.37,8.61z"></path><path d="M12,0C5.37,0,0,5.37,0,12s5.37,12,12,12s12-5.37,12-12S18.63,0,12,0z M20.14,15.38c-0.04,0.87-0.18,1.47-0.38,1.99 c-0.21,0.54-0.49,1-0.94,1.45c-0.46,0.46-0.91,0.74-1.45,0.94c-0.52,0.2-1.12,0.34-1.99,0.38c-0.87,0.04-1.15,0.05-3.38,0.05 s-2.5-0.01-3.38-0.05c-0.87-0.04-1.47-0.18-1.99-0.38c-0.54-0.21-1-0.49-1.45-0.94c-0.46-0.46-0.74-0.91-0.94-1.45 c-0.2-0.52-0.34-1.12-0.38-1.99C3.82,14.5,3.81,14.22,3.81,12s0.01-2.5,0.05-3.38C3.9,7.75,4.04,7.16,4.24,6.64 c0.21-0.54,0.49-1,0.94-1.45C5.64,4.73,6.1,4.45,6.64,4.24c0.52-0.2,1.12-0.34,1.99-0.38C9.5,3.82,9.78,3.81,12,3.81 s2.5,0.01,3.38,0.05c0.87,0.04,1.47,0.18,1.99,0.38c0.54,0.21,1,0.49,1.45,0.94c0.46,0.46,0.74,0.91,0.94,1.45 c0.2,0.52,0.34,1.12,0.38,1.99c0.04,0.87,0.05,1.15,0.05,3.38S20.18,14.5,20.14,15.38z"></path></g></svg>