<svg id="tiktok-icon" xmlns="http://www.w3.org/2000/svg" x="0px" y="0px" viewBox="0 0 24 24" class="tiktok _14c7ccv0"><path d="M12,0C5.37,0,0,5.37,0,12s5.37,12,12,12s12-5.37,12-12S18.63,0,12,0z M18.87,10.58c0,0-0.96-0.04-1.67-0.23 c-0.99-0.26-1.62-0.67-1.62-0.67s-0.44-0.29-0.47-0.31v5.59c0,0.31-0.08,1.09-0.33,1.74c-0.22,0.55-0.52,1.07-0.91,1.52 c0,0-0.61,0.75-1.68,1.26c-0.96,0.46-1.81,0.45-2.06,0.46c0,0-1.46,0.06-2.78-0.84l-0.01-0.01v0.01c-0.45-0.31-0.84-0.69-1.18-1.11 c-0.42-0.53-0.67-1.16-0.74-1.35v-0.01c-0.11-0.31-0.33-1.07-0.29-1.81c0.05-1.29,0.49-2.09,0.6-2.29c0.3-0.54,0.7-1.03,1.17-1.44 c1.08-0.91,2.5-1.32,3.9-1.14l0,2.77c-0.23-0.07-0.47-0.11-0.71-0.11c-1.27,0-2.3,1.04-2.3,2.31c0,1.28,1.03,2.31,2.3,2.31 c0.4,0,0.78-0.1,1.13-0.3c0.67-0.38,1.11-1.07,1.16-1.84c0,0,0,0,0-0.01c0-0.01,0-0.02,0-0.02c0-0.02,0-0.03,0-0.05 c0.01-0.14,0.01-0.28,0.01-0.42V4.07h2.72c0,0-0.03,0.26,0.04,0.66h0c0.08,0.49,0.31,1.18,0.9,1.86c0.24,0.26,0.51,0.49,0.8,0.68 c0.1,0.07,0.21,0.13,0.31,0.18c0.7,0.35,1.38,0.45,1.71,0.42V10.58z"></path></svg>